<mxfile host="app.diagrams.net" modified="2024-03-28T14:53:13.154Z" agent="Mozilla/5.0 (Windows NT 10.0; Win64; x64) AppleWebKit/537.36 (KHTML, like Gecko) Chrome/122.0.0.0 Safari/537.36 OPR/108.0.0.0" etag="Ye2M0lr9L1hFCQAHCoY_" version="23.1.1" type="device">
  <diagram name="Страница — 1" id="CuNzeYtsO5LG5YSS1-Ol">
    <mxGraphModel dx="1532" dy="872" grid="1" gridSize="10" guides="1" tooltips="1" connect="1" arrows="1" fold="1" page="1" pageScale="1" pageWidth="1169" pageHeight="827" math="0" shadow="0">
      <root>
        <mxCell id="0" />
        <mxCell id="1" parent="0" />
        <mxCell id="p64gzMTPwt9XWlwHVPlz-1" value="User" style="swimlane;whiteSpace=wrap;html=1;" parent="1" vertex="1">
          <mxGeometry x="70" y="40" width="250" height="720" as="geometry" />
        </mxCell>
        <mxCell id="p64gzMTPwt9XWlwHVPlz-3" value="Fills the form" style="rounded=1;whiteSpace=wrap;html=1;arcSize=40;fontColor=#000000;fillColor=#ffffc0;strokeColor=#ff0000;" parent="p64gzMTPwt9XWlwHVPlz-1" vertex="1">
          <mxGeometry x="30" y="100" width="120" height="40" as="geometry" />
        </mxCell>
        <mxCell id="p64gzMTPwt9XWlwHVPlz-29" value="Upload an XML file" style="rounded=1;whiteSpace=wrap;html=1;arcSize=40;fontColor=#000000;fillColor=#ffffc0;strokeColor=#ff0000;" parent="p64gzMTPwt9XWlwHVPlz-1" vertex="1">
          <mxGeometry x="100" y="180" width="120" height="40" as="geometry" />
        </mxCell>
        <mxCell id="DOqggEpfExDYHU-E0ke2-13" style="edgeStyle=orthogonalEdgeStyle;rounded=0;orthogonalLoop=1;jettySize=auto;html=1;curved=0;entryX=0.5;entryY=0;entryDx=0;entryDy=0;strokeColor=#FF0000;" edge="1" parent="p64gzMTPwt9XWlwHVPlz-1" source="DOqggEpfExDYHU-E0ke2-12" target="p64gzMTPwt9XWlwHVPlz-3">
          <mxGeometry relative="1" as="geometry">
            <mxPoint x="210" y="100" as="sourcePoint" />
            <Array as="points">
              <mxPoint x="90" y="80" />
            </Array>
          </mxGeometry>
        </mxCell>
        <mxCell id="DOqggEpfExDYHU-E0ke2-14" style="edgeStyle=orthogonalEdgeStyle;rounded=0;orthogonalLoop=1;jettySize=auto;html=1;curved=0;exitX=0;exitY=1;exitDx=0;exitDy=-5;exitPerimeter=0;entryX=0.5;entryY=0;entryDx=0;entryDy=0;strokeColor=#FF0000;" edge="1" parent="p64gzMTPwt9XWlwHVPlz-1" source="DOqggEpfExDYHU-E0ke2-12" target="p64gzMTPwt9XWlwHVPlz-29">
          <mxGeometry relative="1" as="geometry" />
        </mxCell>
        <mxCell id="DOqggEpfExDYHU-E0ke2-12" value="" style="html=1;points=[[0,0,0,0,5],[0,1,0,0,-5],[1,0,0,0,5],[1,1,0,0,-5]];perimeter=orthogonalPerimeter;outlineConnect=0;targetShapes=umlLifeline;portConstraint=eastwest;newEdgeStyle={&quot;curved&quot;:0,&quot;rounded&quot;:0};fillColor=#000000;" vertex="1" parent="p64gzMTPwt9XWlwHVPlz-1">
          <mxGeometry x="220" y="60" width="10" height="80" as="geometry" />
        </mxCell>
        <mxCell id="DOqggEpfExDYHU-E0ke2-31" style="edgeStyle=orthogonalEdgeStyle;rounded=0;orthogonalLoop=1;jettySize=auto;html=1;curved=0;exitX=0.5;exitY=1;exitDx=0;exitDy=0;strokeColor=#FF0000;endArrow=none;endFill=0;" edge="1" parent="p64gzMTPwt9XWlwHVPlz-1" source="p64gzMTPwt9XWlwHVPlz-3">
          <mxGeometry relative="1" as="geometry">
            <mxPoint x="115" y="170" as="sourcePoint" />
            <mxPoint x="240" y="200" as="targetPoint" />
            <Array as="points">
              <mxPoint x="90" y="260" />
              <mxPoint x="240" y="260" />
            </Array>
          </mxGeometry>
        </mxCell>
        <mxCell id="DOqggEpfExDYHU-E0ke2-32" style="edgeStyle=orthogonalEdgeStyle;rounded=0;orthogonalLoop=1;jettySize=auto;html=1;curved=0;strokeColor=#FF0000;entryX=0;entryY=0.5;entryDx=0;entryDy=0;" edge="1" parent="p64gzMTPwt9XWlwHVPlz-1" target="DOqggEpfExDYHU-E0ke2-33">
          <mxGeometry relative="1" as="geometry">
            <mxPoint x="220" y="60" as="sourcePoint" />
            <mxPoint x="100" y="672.0000457763672" as="targetPoint" />
            <Array as="points">
              <mxPoint x="20" y="60" />
              <mxPoint x="20" y="660" />
            </Array>
          </mxGeometry>
        </mxCell>
        <mxCell id="DOqggEpfExDYHU-E0ke2-33" value="Leaves the page" style="rounded=1;whiteSpace=wrap;html=1;arcSize=40;fontColor=#000000;fillColor=#ffffc0;strokeColor=#ff0000;" vertex="1" parent="p64gzMTPwt9XWlwHVPlz-1">
          <mxGeometry x="100" y="640" width="120" height="40" as="geometry" />
        </mxCell>
        <mxCell id="p64gzMTPwt9XWlwHVPlz-2" value="Admin Books Page" style="swimlane;whiteSpace=wrap;html=1;" parent="1" vertex="1">
          <mxGeometry x="320" y="40" width="360" height="720" as="geometry" />
        </mxCell>
        <mxCell id="p64gzMTPwt9XWlwHVPlz-6" value="Display &quot;Add Books&quot;&lt;br&gt;form" style="rounded=1;whiteSpace=wrap;html=1;arcSize=40;fontColor=#000000;fillColor=#ffffc0;strokeColor=#ff0000;" parent="p64gzMTPwt9XWlwHVPlz-2" vertex="1">
          <mxGeometry x="160" y="80" width="120" height="40" as="geometry" />
        </mxCell>
        <mxCell id="p64gzMTPwt9XWlwHVPlz-14" value="Information valid?" style="rhombus;whiteSpace=wrap;html=1;fontColor=#000000;fillColor=#ffffc0;strokeColor=#ff0000;" parent="p64gzMTPwt9XWlwHVPlz-2" vertex="1">
          <mxGeometry x="70" y="250" width="120" height="40" as="geometry" />
        </mxCell>
        <mxCell id="DOqggEpfExDYHU-E0ke2-19" style="edgeStyle=orthogonalEdgeStyle;rounded=0;orthogonalLoop=1;jettySize=auto;html=1;entryX=1;entryY=0.5;entryDx=0;entryDy=0;strokeColor=#FF0000;" edge="1" parent="p64gzMTPwt9XWlwHVPlz-2" source="p64gzMTPwt9XWlwHVPlz-19" target="p64gzMTPwt9XWlwHVPlz-6">
          <mxGeometry relative="1" as="geometry">
            <Array as="points">
              <mxPoint x="300" y="314" />
              <mxPoint x="300" y="100" />
            </Array>
          </mxGeometry>
        </mxCell>
        <mxCell id="p64gzMTPwt9XWlwHVPlz-19" value="Display &quot;Не удалось добавить книги!&quot;" style="rounded=1;whiteSpace=wrap;html=1;arcSize=40;fontColor=#000000;fillColor=#ffffc0;strokeColor=#ff0000;" parent="p64gzMTPwt9XWlwHVPlz-2" vertex="1">
          <mxGeometry x="160" y="294" width="120" height="40" as="geometry" />
        </mxCell>
        <mxCell id="DOqggEpfExDYHU-E0ke2-6" style="edgeStyle=orthogonalEdgeStyle;rounded=0;orthogonalLoop=1;jettySize=auto;html=1;entryX=0.5;entryY=0;entryDx=0;entryDy=0;strokeColor=#FF0000;" edge="1" parent="p64gzMTPwt9XWlwHVPlz-2" source="p64gzMTPwt9XWlwHVPlz-24" target="p64gzMTPwt9XWlwHVPlz-37">
          <mxGeometry relative="1" as="geometry" />
        </mxCell>
        <mxCell id="p64gzMTPwt9XWlwHVPlz-24" value="Add amount of books to already existing ones" style="rounded=1;whiteSpace=wrap;html=1;arcSize=40;fontColor=#000000;fillColor=#ffffc0;strokeColor=#ff0000;" parent="p64gzMTPwt9XWlwHVPlz-2" vertex="1">
          <mxGeometry x="160" y="400" width="120" height="40" as="geometry" />
        </mxCell>
        <mxCell id="p64gzMTPwt9XWlwHVPlz-26" value="" style="ellipse;html=1;shape=startState;fillColor=#000000;strokeColor=#ff0000;" parent="p64gzMTPwt9XWlwHVPlz-2" vertex="1">
          <mxGeometry x="205" y="30" width="30" height="30" as="geometry" />
        </mxCell>
        <mxCell id="p64gzMTPwt9XWlwHVPlz-27" value="" style="edgeStyle=orthogonalEdgeStyle;html=1;verticalAlign=bottom;endArrow=open;endSize=8;strokeColor=#ff0000;rounded=0;" parent="p64gzMTPwt9XWlwHVPlz-2" source="p64gzMTPwt9XWlwHVPlz-26" target="p64gzMTPwt9XWlwHVPlz-6" edge="1">
          <mxGeometry relative="1" as="geometry">
            <mxPoint x="215" y="90" as="targetPoint" />
          </mxGeometry>
        </mxCell>
        <mxCell id="p64gzMTPwt9XWlwHVPlz-28" value="" style="ellipse;html=1;shape=endState;fillColor=#000000;strokeColor=#ff0000;" parent="p64gzMTPwt9XWlwHVPlz-2" vertex="1">
          <mxGeometry x="205" y="680" width="30" height="30" as="geometry" />
        </mxCell>
        <mxCell id="p64gzMTPwt9XWlwHVPlz-34" value="" style="edgeStyle=orthogonalEdgeStyle;html=1;align=left;verticalAlign=top;endArrow=open;endSize=8;strokeColor=#ff0000;rounded=0;exitX=0.5;exitY=1;exitDx=0;exitDy=0;" parent="p64gzMTPwt9XWlwHVPlz-2" source="DOqggEpfExDYHU-E0ke2-24" target="p64gzMTPwt9XWlwHVPlz-35" edge="1">
          <mxGeometry x="-0.0909" y="20" relative="1" as="geometry">
            <mxPoint x="80" y="500" as="targetPoint" />
            <mxPoint x="70" y="534.9999999999999" as="sourcePoint" />
            <Array as="points">
              <mxPoint x="70" y="460" />
              <mxPoint x="220" y="460" />
            </Array>
            <mxPoint as="offset" />
          </mxGeometry>
        </mxCell>
        <mxCell id="p64gzMTPwt9XWlwHVPlz-35" value="Saves the information" style="rounded=1;whiteSpace=wrap;html=1;arcSize=40;fontColor=#000000;fillColor=#ffffc0;strokeColor=#ff0000;" parent="p64gzMTPwt9XWlwHVPlz-2" vertex="1">
          <mxGeometry x="160" y="600" width="120" height="40" as="geometry" />
        </mxCell>
        <mxCell id="p64gzMTPwt9XWlwHVPlz-36" value="" style="edgeStyle=orthogonalEdgeStyle;html=1;verticalAlign=bottom;endArrow=open;endSize=8;strokeColor=#ff0000;rounded=0;" parent="p64gzMTPwt9XWlwHVPlz-2" source="p64gzMTPwt9XWlwHVPlz-35" target="p64gzMTPwt9XWlwHVPlz-6" edge="1">
          <mxGeometry relative="1" as="geometry">
            <mxPoint x="220" y="540" as="targetPoint" />
            <Array as="points">
              <mxPoint x="340" y="620" />
              <mxPoint x="340" y="100" />
            </Array>
          </mxGeometry>
        </mxCell>
        <mxCell id="p64gzMTPwt9XWlwHVPlz-37" value="Display &quot;Книги успешно добавлены!&quot;" style="rounded=1;whiteSpace=wrap;html=1;arcSize=40;fontColor=#000000;fillColor=#ffffc0;strokeColor=#ff0000;" parent="p64gzMTPwt9XWlwHVPlz-2" vertex="1">
          <mxGeometry x="160" y="470" width="120" height="90" as="geometry" />
        </mxCell>
        <mxCell id="p64gzMTPwt9XWlwHVPlz-16" value="yes" style="edgeStyle=orthogonalEdgeStyle;html=1;align=left;verticalAlign=top;endArrow=open;endSize=8;strokeColor=#ff0000;rounded=0;entryX=0.5;entryY=0;entryDx=0;entryDy=0;" parent="p64gzMTPwt9XWlwHVPlz-2" source="p64gzMTPwt9XWlwHVPlz-14" target="DOqggEpfExDYHU-E0ke2-2" edge="1">
          <mxGeometry x="-1" y="-28" relative="1" as="geometry">
            <mxPoint x="120" y="320" as="targetPoint" />
            <mxPoint x="39.5" y="180" as="sourcePoint" />
            <Array as="points">
              <mxPoint x="80" y="270" />
              <mxPoint x="80" y="270" />
            </Array>
            <mxPoint x="8" y="-20" as="offset" />
          </mxGeometry>
        </mxCell>
        <mxCell id="DOqggEpfExDYHU-E0ke2-2" value="Is book already exists in DB?" style="rhombus;whiteSpace=wrap;html=1;fontColor=#000000;fillColor=#ffffc0;strokeColor=#ff0000;" vertex="1" parent="p64gzMTPwt9XWlwHVPlz-2">
          <mxGeometry x="10" y="334" width="120" height="40" as="geometry" />
        </mxCell>
        <mxCell id="DOqggEpfExDYHU-E0ke2-21" value="no" style="edgeStyle=orthogonalEdgeStyle;html=1;align=left;verticalAlign=top;endArrow=open;endSize=8;strokeColor=#ff0000;rounded=0;entryX=0.5;entryY=0;entryDx=0;entryDy=0;exitX=1;exitY=0.5;exitDx=0;exitDy=0;" edge="1" parent="p64gzMTPwt9XWlwHVPlz-2" source="p64gzMTPwt9XWlwHVPlz-14" target="p64gzMTPwt9XWlwHVPlz-19">
          <mxGeometry x="-0.6296" y="20" relative="1" as="geometry">
            <mxPoint x="225" y="274" as="targetPoint" />
            <mxPoint x="225" y="210" as="sourcePoint" />
            <Array as="points">
              <mxPoint x="220" y="270" />
            </Array>
            <mxPoint as="offset" />
          </mxGeometry>
        </mxCell>
        <mxCell id="DOqggEpfExDYHU-E0ke2-22" value="yes" style="edgeStyle=orthogonalEdgeStyle;html=1;align=left;verticalAlign=top;endArrow=open;endSize=8;strokeColor=#ff0000;rounded=0;entryX=0.5;entryY=0;entryDx=0;entryDy=0;exitX=1;exitY=0.5;exitDx=0;exitDy=0;" edge="1" parent="p64gzMTPwt9XWlwHVPlz-2" source="DOqggEpfExDYHU-E0ke2-2" target="p64gzMTPwt9XWlwHVPlz-24">
          <mxGeometry x="-1" relative="1" as="geometry">
            <mxPoint x="80" y="344" as="targetPoint" />
            <mxPoint x="80" y="280" as="sourcePoint" />
            <Array as="points">
              <mxPoint x="220" y="354" />
            </Array>
            <mxPoint as="offset" />
          </mxGeometry>
        </mxCell>
        <mxCell id="DOqggEpfExDYHU-E0ke2-24" value="Create books" style="rounded=1;whiteSpace=wrap;html=1;arcSize=40;fontColor=#000000;fillColor=#ffffc0;strokeColor=#ff0000;" vertex="1" parent="p64gzMTPwt9XWlwHVPlz-2">
          <mxGeometry x="10" y="400" width="120" height="40" as="geometry" />
        </mxCell>
        <mxCell id="DOqggEpfExDYHU-E0ke2-26" value="no" style="edgeStyle=orthogonalEdgeStyle;html=1;align=left;verticalAlign=top;endArrow=open;endSize=8;strokeColor=#ff0000;rounded=0;entryX=0.5;entryY=0;entryDx=0;entryDy=0;exitX=0;exitY=0.5;exitDx=0;exitDy=0;" edge="1" parent="p64gzMTPwt9XWlwHVPlz-2" source="DOqggEpfExDYHU-E0ke2-2" target="DOqggEpfExDYHU-E0ke2-24">
          <mxGeometry x="-0.8868" relative="1" as="geometry">
            <mxPoint x="-20" y="406" as="targetPoint" />
            <mxPoint x="-20" y="342" as="sourcePoint" />
            <Array as="points">
              <mxPoint x="10" y="380" />
              <mxPoint x="70" y="380" />
            </Array>
            <mxPoint as="offset" />
          </mxGeometry>
        </mxCell>
        <mxCell id="DOqggEpfExDYHU-E0ke2-10" value="" style="edgeStyle=orthogonalEdgeStyle;rounded=0;orthogonalLoop=1;jettySize=auto;html=1;strokeColor=#FF0000;" edge="1" parent="1" source="p64gzMTPwt9XWlwHVPlz-6">
          <mxGeometry relative="1" as="geometry">
            <mxPoint x="480" y="140" as="sourcePoint" />
            <mxPoint x="300" y="140" as="targetPoint" />
          </mxGeometry>
        </mxCell>
        <mxCell id="DOqggEpfExDYHU-E0ke2-15" style="edgeStyle=orthogonalEdgeStyle;rounded=0;orthogonalLoop=1;jettySize=auto;html=1;entryX=0.5;entryY=0;entryDx=0;entryDy=0;strokeColor=#FF0000;" edge="1" parent="1" source="p64gzMTPwt9XWlwHVPlz-29" target="p64gzMTPwt9XWlwHVPlz-14">
          <mxGeometry relative="1" as="geometry">
            <mxPoint x="245" y="350" as="targetPoint" />
          </mxGeometry>
        </mxCell>
        <mxCell id="DOqggEpfExDYHU-E0ke2-34" style="edgeStyle=orthogonalEdgeStyle;rounded=0;orthogonalLoop=1;jettySize=auto;html=1;entryX=0.5;entryY=0;entryDx=0;entryDy=0;strokeColor=#FF0000;" edge="1" parent="1" source="DOqggEpfExDYHU-E0ke2-33" target="p64gzMTPwt9XWlwHVPlz-28">
          <mxGeometry relative="1" as="geometry" />
        </mxCell>
      </root>
    </mxGraphModel>
  </diagram>
</mxfile>
